<svg xmlns="http://www.w3.org/2000/svg" viewBox="0 0 485.76 485.76"><rect width="485.76" height="485.76" fill="#ffffff" id="bg" class="bg"/><g><g transform="translate(222.64,&#10;                                60.72) rotate(270, 20.24, 20.24)"><svg xmlns="http://www.w3.org/2000/svg" id="Layer_1" data-name="Layer 1" viewBox="0 0 100 100" width="40.48" height="40.48"><polygon points="50.194 48.999 50.053 97 10.225 74 10.354 26 50.194 48.999" fill="none" stroke="#6b1dd8" stroke-linecap="round" stroke-linejoin="round" stroke-width="6"/><polygon points="89.775 26 89.646 74 50.053 97 50.194 48.999 89.775 26" fill="#da65c2" stroke="#6b1dd8" stroke-linecap="round" stroke-linejoin="round" stroke-width="6"/><path d="M50.194,52a3,3,0,0,1-1.5-.4l-39.84-23a3,3,0,0,1-.006-5.193L48.44.406a3,3,0,0,1,3.007,0l39.828,23a3,3,0,0,1,.007,5.192l-39.581,23A3,3,0,0,1,50.194,52Z" fill="#6b1dd8"/></svg></g><g transform="translate(384.56,&#10;                                60.72) rotate(0, 20.24, 20.24)"><svg xmlns="http://www.w3.org/2000/svg" id="Layer_1" data-name="Layer 1" viewBox="0 0 100 100" width="40.48" height="40.48"><path d="M100,100A50,50,0,0,0,0,100Z" fill="#DCCDE7"/></svg></g><g transform="translate(60.72,&#10;                                222.64) rotate(180, 20.24, 20.24)"><svg xmlns="http://www.w3.org/2000/svg" id="Layer_1" data-name="Layer 1" viewBox="0 0 100 100" width="40.48" height="40.48"><polygon points="50.194 48.999 50.053 97 10.225 74 10.354 26 50.194 48.999" fill="none" stroke="#6b1dd8" stroke-linecap="round" stroke-linejoin="round" stroke-width="6"/><polygon points="89.775 26 89.646 74 50.053 97 50.194 48.999 89.775 26" fill="#da65c2" stroke="#6b1dd8" stroke-linecap="round" stroke-linejoin="round" stroke-width="6"/><path d="M50.194,52a3,3,0,0,1-1.5-.4l-39.84-23a3,3,0,0,1-.006-5.193L48.44.406a3,3,0,0,1,3.007,0l39.828,23a3,3,0,0,1,.007,5.192l-39.581,23A3,3,0,0,1,50.194,52Z" fill="#6b1dd8"/></svg></g><g transform="translate(60.72,&#10;                                384.56) rotate(180, 20.24, 20.24)"><svg xmlns="http://www.w3.org/2000/svg" id="Layer_1" data-name="Layer 1" viewBox="0 0 100 100" width="40.48" height="40.48"><circle cx="50" cy="50" r="50" fill="#DCCDE7"/></svg></g></g></svg>