<svg id="visual" viewBox="0 0 900 450" width="900" height="450" xmlns="http://www.w3.org/2000/svg" xmlns:xlink="http://www.w3.org/1999/xlink" version="1.1"><rect x="0" y="0" width="900" height="450" fill="#001220"></rect><path d="M0 325L21.5 323.2C43 321.3 86 317.7 128.8 311.7C171.7 305.7 214.3 297.3 257.2 298.7C300 300 343 311 385.8 318.8C428.7 326.7 471.3 331.3 514.2 329.8C557 328.3 600 320.7 642.8 312.3C685.7 304 728.3 295 771.2 297.5C814 300 857 314 878.5 321L900 328L900 451L878.5 451C857 451 814 451 771.2 451C728.3 451 685.7 451 642.8 451C600 451 557 451 514.2 451C471.3 451 428.7 451 385.8 451C343 451 300 451 257.2 451C214.3 451 171.7 451 128.8 451C86 451 43 451 21.5 451L0 451Z" fill="#fa7268"></path><path d="M0 335L21.5 328.8C43 322.7 86 310.3 128.8 312.8C171.7 315.3 214.3 332.7 257.2 336.2C300 339.7 343 329.3 385.8 323.7C428.7 318 471.3 317 514.2 317.5C557 318 600 320 642.8 319C685.7 318 728.3 314 771.2 311C814 308 857 306 878.5 305L900 304L900 451L878.5 451C857 451 814 451 771.2 451C728.3 451 685.7 451 642.8 451C600 451 557 451 514.2 451C471.3 451 428.7 451 385.8 451C343 451 300 451 257.2 451C214.3 451 171.7 451 128.8 451C86 451 43 451 21.5 451L0 451Z" fill="#ef5f67"></path><path d="M0 353L21.5 349.2C43 345.3 86 337.7 128.8 335.3C171.7 333 214.3 336 257.2 343.5C300 351 343 363 385.8 363.8C428.7 364.7 471.3 354.3 514.2 348.5C557 342.7 600 341.3 642.8 344.2C685.7 347 728.3 354 771.2 353.3C814 352.7 857 344.3 878.5 340.2L900 336L900 451L878.5 451C857 451 814 451 771.2 451C728.3 451 685.7 451 642.8 451C600 451 557 451 514.2 451C471.3 451 428.7 451 385.8 451C343 451 300 451 257.2 451C214.3 451 171.7 451 128.8 451C86 451 43 451 21.5 451L0 451Z" fill="#e34c67"></path><path d="M0 396L21.5 397.2C43 398.3 86 400.7 128.8 398C171.7 395.3 214.3 387.7 257.2 387.7C300 387.7 343 395.3 385.8 399C428.7 402.7 471.3 402.3 514.2 398.7C557 395 600 388 642.8 385C685.7 382 728.3 383 771.2 386.2C814 389.3 857 394.7 878.5 397.3L900 400L900 451L878.5 451C857 451 814 451 771.2 451C728.3 451 685.7 451 642.8 451C600 451 557 451 514.2 451C471.3 451 428.7 451 385.8 451C343 451 300 451 257.2 451C214.3 451 171.7 451 128.8 451C86 451 43 451 21.5 451L0 451Z" fill="#d53867"></path><path d="M0 401L21.5 402.2C43 403.3 86 405.7 128.8 405.2C171.7 404.7 214.3 401.3 257.2 403.8C300 406.3 343 414.7 385.8 419.3C428.7 424 471.3 425 514.2 423C557 421 600 416 642.8 411.5C685.7 407 728.3 403 771.2 403.8C814 404.7 857 410.3 878.5 413.2L900 416L900 451L878.5 451C857 451 814 451 771.2 451C728.3 451 685.7 451 642.8 451C600 451 557 451 514.2 451C471.3 451 428.7 451 385.8 451C343 451 300 451 257.2 451C214.3 451 171.7 451 128.8 451C86 451 43 451 21.5 451L0 451Z" fill="#c62368"></path></svg>